<svg width="44" height="108" viewBox="0 0 44 108" fill="none" xmlns="http://www.w3.org/2000/svg">
<path opacity="0.5" d="M12.1453 102.404C15.8251 102.038 19.4017 101.751 23.4598 101.341C22.8831 103.677 21.2422 104.858 19.5224 105.196C14.3631 106.207 9.1236 107.116 3.85048 107.558C0.835608 107.823 -0.456051 105.527 0.820387 102.816C2.89053 98.2607 5.22411 93.8312 7.47761 89.2989C7.6041 89.037 7.74219 88.6838 7.93715 88.616C8.6369 88.2416 9.4051 88.0613 10.1849 87.7899C10.3787 88.4632 10.9393 89.1833 10.778 89.7188C10.2593 91.5989 9.56887 93.3646 8.97012 95.1419C8.65914 96.1217 8.26809 96.9987 8.54083 98.5162C9.76858 97.653 11.088 96.8014 12.3157 95.9382C36.8961 77.009 45.622 45.0346 34.2963 16.1622C32.812 12.4518 30.9262 8.96829 29.2469 5.32572C28.6643 4.04684 28.1734 2.77963 27.5908 1.50075C27.809 1.25049 28.1072 1.10308 28.3254 0.852814C29.1157 1.23138 30.2042 1.46253 30.673 2.1709C32.343 4.42218 34.013 6.67346 35.3731 9.16334C48.9975 33.8798 45.6364 65.4246 26.7702 87.7684C23.1532 92.0346 18.7807 95.6486 14.7516 99.4917C13.9022 100.31 12.9843 100.935 12.0548 101.651C11.9399 101.822 11.9968 102.107 12.1453 102.404Z" fill="#2563EB"/>
</svg>
