<svg width="71" height="74" viewBox="0 0 71 74" fill="none" xmlns="http://www.w3.org/2000/svg">
<path fill-rule="evenodd" clip-rule="evenodd" d="M24.5388 34.6931C25.8961 34.2094 27.3244 33.5667 28.4258 32.6361C29.734 31.5307 30.266 30.1072 30.6232 28.6087C31.0819 26.6836 31.2652 24.6328 31.8213 22.7045C32.0273 21.9884 32.4236 21.7178 32.5936 21.5976C33.0234 21.2942 33.4579 21.2131 33.8666 21.2435C34.351 21.2786 35.0164 21.4619 35.454 22.2739C35.5164 22.3902 35.5975 22.5673 35.6521 22.8098C35.6919 22.9877 35.7177 23.5439 35.7598 23.7732C35.8651 24.3379 35.9533 24.9027 36.0359 25.4706C36.3113 27.3606 36.4697 28.966 37.3394 30.7023C38.5196 33.0596 39.7022 34.5019 41.306 35.1408C42.8567 35.7586 44.7108 35.6424 47.0798 35.158C47.3053 35.1034 47.5283 35.0566 47.7491 35.0183C48.7936 34.8358 49.792 35.5215 49.9972 36.5621C50.2024 37.6019 49.5386 38.6151 48.5034 38.8437C48.2874 38.8913 48.0744 38.9365 47.8638 38.9778C44.6625 39.7704 40.9565 42.5988 38.8028 45.0755C38.1389 45.8391 37.167 47.9741 36.1756 49.3361C35.4439 50.3408 34.6217 51.003 33.9314 51.237C33.4688 51.3946 33.0788 51.3705 32.7566 51.2909C32.2886 51.1754 31.9002 50.9219 31.6022 50.5186C31.4399 50.2979 31.2894 50.0022 31.2176 49.6247C31.1833 49.4429 31.1794 48.9812 31.1802 48.7721C30.9781 48.0771 30.7309 47.3984 30.5507 46.6972C30.1209 45.024 29.2776 43.9647 28.276 42.5653C27.3392 41.2556 26.333 40.4326 24.8579 39.7758C24.666 39.729 23.1176 39.3499 22.5708 39.1323C21.772 38.8133 21.3914 38.2789 21.2533 37.9911C21.0185 37.5028 20.9943 37.0761 21.0411 36.7204C21.1106 36.1954 21.3461 35.7461 21.7642 35.3834C22.0232 35.158 22.4101 34.9388 22.9281 34.8319C23.3282 34.7484 24.3898 34.7001 24.5388 34.6931ZM33.6225 31.966C33.6942 32.1259 33.7707 32.2866 33.8518 32.4489C35.5804 35.9013 37.5133 37.8288 39.8628 38.7641L39.9416 38.7945C38.3698 39.9615 36.947 41.2657 35.8596 42.5161C35.4119 43.031 34.8191 44.1004 34.1787 45.1972C33.5967 43.3056 32.6451 41.9686 31.4485 40.2954C30.5343 39.0184 29.5764 38.0574 28.3993 37.2743C29.3127 36.8054 30.184 36.2563 30.943 35.6151C32.2067 34.5472 33.0421 33.31 33.6225 31.966Z" fill="#2B91FE"/>
<path fill-rule="evenodd" clip-rule="evenodd" d="M31.0012 1.51292C31.1734 4.96608 31.3453 8.41923 31.5174 11.873C31.5174 12.6639 32.2066 13.2747 33.0102 13.2362C33.8138 13.1972 34.3874 12.5239 34.3874 11.7323C34.2152 8.27344 34.0434 4.81511 33.8712 1.35679C33.8138 0.565821 33.1249 -0.0408933 32.3213 0.00215641C31.5751 0.0452061 30.9438 0.722523 31.0012 1.51292Z" fill="#2B91FE"/>
<path fill-rule="evenodd" clip-rule="evenodd" d="M32.1499 71.9945C32.3221 68.5414 32.4939 65.0882 32.6661 61.6345C32.6661 60.8435 33.3553 60.2328 34.1589 60.2712C34.9625 60.3103 35.5361 60.9836 35.5361 61.7751C35.3639 65.234 35.192 68.6923 35.0199 72.1507C34.9625 72.9416 34.2735 73.5483 33.4699 73.5053C32.7238 73.4622 32.0925 72.7849 32.1499 71.9945Z" fill="#2B91FE"/>
<path fill-rule="evenodd" clip-rule="evenodd" d="M69.6437 35.9648C65.8942 35.258 62.0174 35.0752 58.2591 34.9257C57.4499 34.8963 56.7552 35.5165 56.7665 36.3038C56.7206 37.0966 57.3554 37.7624 58.1075 37.7969C61.7498 37.9386 65.5091 38.1024 69.0836 38.7858C69.8457 38.9352 70.608 38.4237 70.7703 37.6444C70.9326 36.8656 70.4059 36.1148 69.6437 35.9648Z" fill="#2B91FE"/>
<path fill-rule="evenodd" clip-rule="evenodd" d="M1.27672 36.5383C5.02616 35.8315 8.90296 35.6486 12.6613 35.4992C13.4705 35.4698 14.1652 36.09 14.1539 36.8773C14.1998 37.6701 13.565 38.3359 12.8129 38.3704C9.17056 38.5121 5.41135 38.6758 1.8368 39.3593C1.07469 39.5087 0.312435 38.9972 0.150146 38.2179C-0.012193 37.439 0.514555 36.6883 1.27672 36.5383Z" fill="#2B91FE"/>
</svg>
