<svg width="170" height="170" viewBox="0 0 170 170" fill="none" xmlns="http://www.w3.org/2000/svg">
<path d="M91.8991 54.5831L150.263 112.947C155.507 118.191 164.487 115.941 166.581 108.819C169.046 100.386 170.239 91.425 169.926 82.1313C168.459 37.8155 132.38 1.61935 88.0643 0.0541071C39.7179 -1.64809 0 37.0329 0 84.9879C0 93.2837 1.1935 101.306 3.42396 108.897C5.4979 115.98 14.4785 118.151 19.7025 112.947L78.0663 54.5831C81.8816 50.7679 88.0838 50.7679 91.8991 54.5831Z" fill="white"/>
<path d="M73.5467 134.645L78.3012 129.891C82.1164 126.076 88.3187 126.076 92.134 129.891L118.665 156.461C121.365 159.161 125.571 159.767 128.839 157.791C131.558 156.148 134.161 154.387 136.665 152.469C141.38 148.85 141.889 141.924 137.682 137.717L91.8796 91.9142C88.0643 88.0989 81.8621 88.0989 78.0468 91.9142L32.244 137.717C28.057 141.904 28.5265 148.811 33.2223 152.43C47.5638 163.446 65.5053 170 84.973 170H85.0708C88.7491 170 90.5883 165.559 87.9861 162.956L73.5467 148.478C69.7315 144.663 69.7315 138.46 73.5467 134.645Z" fill="white"/>
</svg>
